<?xml version="1.0" encoding="UTF-8" standalone="no"?>
<!-- Generator: Adobe Illustrator 19.1.0, SVG Export Plug-In . SVG Version: 6.00 Build 0)  -->
<svg id="Layer_1" xmlns:sketch="http://www.bohemiancoding.com/sketch/ns" style="enable-background:new -247 370.9 100 101" xmlns="http://www.w3.org/2000/svg" xml:space="preserve" height="101px" viewBox="-247 370.9 100 101" width="100px" version="1.1" y="0px" x="0px" xmlns:xlink="http://www.w3.org/1999/xlink">
<style type="text/css">
	.st0{fill:none;}
	.st1{fill:none;stroke:#FFFFFF;stroke-width:4;}
</style>
<title>Slice 1</title>
<desc>Created with Sketch.</desc>
<g id="Page-1" sketch:type="MSPage">
	<g id="internet-of-things02" sketch:type="MSLayerGroup">
		<g id="layer1" sketch:type="MSShapeGroup" transform="translate(.85715 .49496)">
				<g id="g4845" transform="translate(49.505 50.005) rotate(-90) translate(-49.5 -49)">
					<g id="g4778" transform="translate(49.997 49.5) scale(-1 1) translate(-49 -48.5)">
						<g id="g4780" transform="translate(49.461 48.5) scale(-1 1) translate(-48.5 -48.5)">
							<rect id="rect4782" transform="matrix(-.0000025352 -1 1 -.0000025352 -123.29 -520.56)" width="96" y="-246.6" x="-369.9" height="96" class="st0"/>
							<rect id="rect6257" transform="matrix(-.0000025352 -1 1 -.0000025352 -125.29 -520.56)" width="90" y="-242.7" x="-367.9" height="90" class="st0"/>
						<path id="path4270" d="m-333-216.6c-6.9 0-6.8 2.7-6.9 9.7v16.6c0.1 7 0 9.7 6.9 9.7h22.2c6.9 0 6.8-2.7 6.9-9.7v-16.6c-0.1-7 0-9.7-6.9-9.7h-22.2z" class="st1"/>
						<path id="path4211" d="m-303.9-198.6h8" class="st1"/>
						<path id="path4213" d="m-303.9-188.6h8" class="st1"/>
						<path id="path4215" d="m-303.9-208.6h8" class="st1"/>
						<path id="path4217" d="m-347.9-198.6h8" class="st1"/>
						<path id="path4219" d="m-347.9-188.6h8" class="st1"/>
						<path id="path4221" d="m-347.9-208.6h8" class="st1"/>
						<path id="path4223" d="m-321.9-216.6v-8" class="st1"/>
						<path id="path4225" d="m-311.9-216.6v-8" class="st1"/>
						<path id="path4227" d="m-331.9-216.6v-8" class="st1"/>
						<path id="path4229" d="m-321.9-172.6v-8" class="st1"/>
						<path id="path4231" d="m-311.9-172.6v-8" class="st1"/>
						<path id="path4233" d="m-331.9-172.6v-8" class="st1"/>
							<ellipse id="path4214" ry="40" rx="40" transform="matrix(-.0000025352 -1 1 -.0000025352 -123.29 -520.56)" cy="-198.6" cx="-321.9" class="st1"/>
					</g>
				</g>
			</g>
		</g>
	</g>
</g>
</svg>
