<?xml version="1.0" encoding="UTF-8" standalone="no"?>
<svg
   xmlns:dc="http://purl.org/dc/elements/1.1/"
   xmlns:cc="http://creativecommons.org/ns#"
   xmlns:rdf="http://www.w3.org/1999/02/22-rdf-syntax-ns#"
   xmlns:svg="http://www.w3.org/2000/svg"
   xmlns="http://www.w3.org/2000/svg"
   xmlns:sodipodi="http://sodipodi.sourceforge.net/DTD/sodipodi-0.dtd"
   xmlns:inkscape="http://www.inkscape.org/namespaces/inkscape"
   height="100"
   width="100"
   version="1.1"
   viewBox="0 0 100 100"
   id="svg20"
   sodipodi:docname="icon-containers.svg"
   inkscape:version="0.92.3 (2405546, 2018-03-11)">
  <metadata
     id="metadata26">
    <rdf:RDF>
      <cc:Work
         rdf:about="">
        <dc:format>image/svg+xml</dc:format>
        <dc:type
           rdf:resource="http://purl.org/dc/dcmitype/StillImage" />
        <dc:title>containers</dc:title>
      </cc:Work>
    </rdf:RDF>
  </metadata>
  <defs
     id="defs24" />
  <sodipodi:namedview
     pagecolor="#ffffff"
     bordercolor="#666666"
     borderopacity="1"
     objecttolerance="10"
     gridtolerance="10"
     guidetolerance="10"
     inkscape:pageopacity="0"
     inkscape:pageshadow="2"
     inkscape:window-width="1853"
     inkscape:window-height="1025"
     id="namedview22"
     showgrid="false"
     inkscape:zoom="2.4842105"
     inkscape:cx="41.5"
     inkscape:cy="47.5"
     inkscape:window-x="67"
     inkscape:window-y="27"
     inkscape:window-maximized="1"
     inkscape:current-layer="svg20" />
  <!-- Generator: Sketch 42 (36781) - http://www.bohemiancoding.com/sketch -->
  <title
     id="title2">containers</title>
  <desc
     id="desc4">Created with Sketch.</desc>
  <g
     id="Homepage-final"
     style="fill:none;fill-rule:evenodd"
     transform="translate(8.4971721,2.480764)">
    <g
       id="Final-homepage"
       transform="translate(-622,-1391)"
       style="stroke:#666666;stroke-width:1.89999998">
      <g
         id="Sections-strip"
         transform="translate(0,1123)">
        <g
           id="illustration"
           transform="translate(279,255)">
          <g
             id="ilustration">
            <g
               id="containers"
               transform="translate(324)">
              <path
                 id="Rectangle-4"
                 transform="rotate(45,60.5,60.5)"
                 d="m 27.541,29.334 c 0.156,-0.725 0.871,-1.441 1.588,-1.597 l 43.966,-9.579 c 0.722,-0.158 1.731,0.138 2.259,0.663 l 26.826,26.828 c 0.52,0.522 0.82,1.536 0.66,2.254 l -9.549,43.99 c -0.161,0.722 -0.869,1.438 -1.585,1.591 l -43.805,9.356 c -0.719,0.16 -1.725,-0.14 -2.25,-0.67 L 18.823,75.348 C 18.3,74.826 18.002,73.817 18.158,73.088 Z"
                 inkscape:connector-curvature="0" />
              <path
                 id="path7"
                 transform="rotate(45,60.499,60.501)"
                 d="m 34.229,35.983 c 0.156,-0.725 0.864,-1.439 1.589,-1.598 l 34.428,-7.5 c 0.722,-0.158 1.738,0.141 2.253,0.659 l 20.958,20.953 c 0.521,0.522 0.815,1.527 0.662,2.254 l -7.488,34.45 c -0.154,0.722 -0.862,1.431 -1.597,1.591 l -34.278,7.327 c -0.725,0.154 -1.739,-0.147 -2.258,-0.668 L 27.545,72.5 c -0.522,-0.522 -0.821,-1.525 -0.664,-2.26 z"
                 inkscape:connector-curvature="0" />
              <path
                 id="path9"
                 transform="rotate(45,60.832,60.834)"
                 d="m 40.994,42.693 c 0.154,-0.719 0.861,-1.428 1.587,-1.587 l 25.265,-5.504 c 0.722,-0.158 1.738,0.139 2.26,0.663 l 15.295,15.296 c 0.522,0.523 0.823,1.532 0.662,2.257 l -5.488,25.285 c -0.154,0.722 -0.863,1.43 -1.585,1.584 L 53.815,86.069 C 53.096,86.222 52.088,85.922 51.563,85.4 L 36.268,70.105 c -0.524,-0.528 -0.825,-1.531 -0.67,-2.253 z"
                 inkscape:connector-curvature="0" />
              <polyline
                 id="Path-5"
                 points="20.771 40.697 60.523 62.939 60.226 105.69" />
              <path
                 id="path12"
                 transform="rotate(180,80.498,51.568)"
                 d="M 100.32,40.28 60.674,62.857 Z"
                 inkscape:connector-curvature="0" />
            </g>
          </g>
        </g>
      </g>
    </g>
  </g>
</svg>
