<?xml version="1.0" encoding="UTF-8" standalone="no"?>
<!-- Generator: Adobe Illustrator 19.1.0, SVG Export Plug-In . SVG Version: 6.00 Build 0)  -->
<svg id="Layer_1" style="enable-background:new -247 372.9 100 96" xmlns="http://www.w3.org/2000/svg" xml:space="preserve" height="96px" viewBox="-247 372.9 100 96" width="100px" version="1.1" y="0px" x="0px" xmlns:xlink="http://www.w3.org/1999/xlink">
<style type="text/css">
	.st0{fill:#FFFFFF;}
</style>
<g id="Comp">
	<path id="path4154_3_" d="m-189.6 391.8c9.6 0.3 17.4 8.2 17.4 17.8v0.1 0.6l-0.2 3.7 3.7 0.4c9 1.1 15.7 8.7 15.7 17.6 0 9.9-8 17.9-17.9 17.9h-52.3c-9.9 0-17.9-8-17.9-17.9 0-7.7 5-14.5 12.4-16.9l3.1-1-0.4-3.3c0-0.3-0.1-0.6-0.1-0.8 0-0.1-0.1-0.4-0.1-0.4 0-5.7 4.7-10.4 10.4-10.4 1.7 0 3.5 0.6 5.4 1.8l3.3 2.1 2.2-3.3c3.4-5.1 8.9-8.1 14.7-8.1l0.6 0.1m-0.5-4c-7.4 0-14 3.9-18.1 9.9-2.3-1.4-4.8-2.4-7.5-2.4-7.9 0-14.4 6.5-14.4 14.4 0 0.6 0.2 1.1 0.2 1.7-8.9 2.9-15.1 11.2-15.2 20.7 0 12.1 9.8 21.9 21.9 21.9h52.3c12.1 0 21.9-9.8 21.9-21.9 0-11.1-8.4-20.3-19.3-21.6 0-0.3 0.1-0.5 0.1-0.8 0-12.1-9.8-21.9-21.9-21.9z" class="st0"/>
</g>
</svg>
