<?xml version="1.0" encoding="UTF-8" standalone="no"?>
<!-- Generator: Adobe Illustrator 19.1.0, SVG Export Plug-In . SVG Version: 6.00 Build 0)  -->
<svg id="Layer_1" style="enable-background:new -249 372.9 96 96" xmlns="http://www.w3.org/2000/svg" xml:space="preserve" height="96px" viewBox="-249 372.9 96 96" width="96px" version="1.1" y="0px" x="0px" xmlns:xlink="http://www.w3.org/1999/xlink">
<style type="text/css">
	.st0{fill:#FFFFFF;}
	.st1{display:none;}
</style>
<g id="Comp">
	<path id="path4297_5_" d="m-229 384.9c-5 0.1-8.7-0.1-11.7 1.5-1.5 0.8-2.7 2.2-3.4 4s-0.9 3.8-0.9 6.5v52h88v-52c0-2.6-0.2-4.7-0.9-6.5s-1.9-3.2-3.4-4c-3-1.7-6.7-1.5-11.7-1.5h-56zm0 4h56c5.1 0.1 8.4 0.2 9.8 1 0.7 0.4 1.2 0.9 1.5 1.9s0.6 2.7 0.6 5.1v48h-80v-48c0-2.4 0.2-4 0.6-5.1 0.4-1 0.8-1.5 1.5-1.9 1.6-0.8 5-1 10-1zm-20 64c0 8 2 8 12 8h72c10 0 12 0 12-8h-40v2h-16v-2h-40z" class="st0"/>
</g>
</svg>
