<?xml version="1.0" encoding="UTF-8" standalone="no"?>
<svg xmlns:sketch="http://www.bohemiancoding.com/sketch/ns" xmlns="http://www.w3.org/2000/svg" height="58px" width="48px" version="1.1" xmlns:xlink="http://www.w3.org/1999/xlink" viewBox="0 0 48 58"><!-- Generator: Sketch 3.4.2 (15855) - http://www.bohemiancoding.com/sketch -->
 <title>Edubuntu_logo</title>
 <desc>Created with Sketch.</desc>
 <g id="Page-1" fill-rule="evenodd" sketch:type="MSPage" fill="none">
  <g id="Edubuntu_logo" sketch:type="MSLayerGroup">
   <g id="Page-1" sketch:type="MSShapeGroup">
    <g id="Edubuntu_logo">
     <path id="path3112" fill="#F1480E" d="m29.839 14.513c1.376 3.564 4.946 6.888 8.957 6.927 1.581-0.08 2.998-0.569 4.216-1.54 2.874 3.406 4.619 7.254 4.983 11.672h-8.308c-0.484-3.811-3.08-7.416-6.563-9.319-2.552-1.301-5.712-1.867-8.713-1.179-1.132-2.187-0.849-5.143-0.769-7.819 0.485-4.9847 2.633-9.2773 5.955-13.129-0.038 4.6196-0.606 9.8487 0.242 14.387z"/>
     <path id="path3116" fill="#F68B11" d="m19.832 23.467c-3.607 3.077-5.105 7.292-4.459 11.992 0.566 2.876 2.068 5.428 4.459 7.5l-4.093 7.088c-3.686-2.433-6.3211-6.2-7.6581-10.095 1.9421-0.885 3.8511-2.876 4.2971-5.02 0.568-2.553-0.123-5.104-1.945-6.929-0.6492-0.728-1.4984-1.093-2.2708-1.54 1.2557-3.769 3.8058-7.497 7.4558-10.052 1.498 2.194 2.798 4.705 4.214 7.056z"/>
     <path id="path3120" fill="#D41308" d="m47.916 35.137c-0.369 4.38-1.988 8.347-4.943 11.669-1.906-1.417-4.742-2.025-7.014-1.012-2.023 0.769-3.926 2.796-4.456 4.902-0.201 0.849-0.241 1.783-0.201 2.754-4.256 0.855-8.797 0.246-12.4-1.457 1.135-2.388 2.632-4.821 4.049-7.211 4.095 1.619 9.16 0.727 12.402-2.026 2.509-2.068 3.729-4.742 4.375-7.619h8.188z"/>
     <path id="path2580" fill="#F1480E" d="m9.9966 33.248c0 2.744-2.2248 4.969-4.9693 4.969s-4.9693-2.225-4.9693-4.969c-0.000023-2.745 2.2248-4.969 4.9693-4.969s4.9693 2.224 4.9693 4.969z"/>
     <path id="path2586" fill="#F68B11" d="m43.654 52.568c0 2.745-2.224 4.969-4.969 4.969-2.744 0-4.969-2.224-4.969-4.969 0-2.744 2.225-4.969 4.969-4.969 2.745 0 4.969 2.225 4.969 4.969z"/>
     <path id="path2588" fill="#D41308" d="m42.982 14.319c0 2.745-2.225 4.97-4.969 4.97-2.745 0-4.97-2.225-4.97-4.97 0-2.744 2.225-4.969 4.97-4.969 2.744 0 4.969 2.225 4.969 4.969z"/>
    </g>
   </g>
  </g>
 </g>
</svg>
