<?xml version="1.0" encoding="UTF-8" standalone="no"?>
<svg xmlns:sketch="http://www.bohemiancoding.com/sketch/ns" xmlns="http://www.w3.org/2000/svg" height="58px" width="58px" version="1.1" xmlns:xlink="http://www.w3.org/1999/xlink" viewBox="0 0 58 58"><!-- Generator: Sketch 3.4.2 (15855) - http://www.bohemiancoding.com/sketch -->
 <title>Kubuntu_logo</title>
 <desc>Created with Sketch.</desc>
 <g id="Page-1" fill-rule="evenodd" sketch:type="MSPage" fill="none">
  <g id="Kubuntu_logo" sketch:type="MSLayerGroup">
   <path id="Shape" sketch:type="MSShapeGroup" fill="#0079C1" d="m57.994 29.293c0.178 11.29-7.103 22.178-17.538 26.45-10.25 4.439-22.981 2.154-30.981-5.668-8.102-7.528-11.059-19.932-7.2767-30.321 3.6574-10.767 14.232-18.701 25.608-19.127 11.06-0.71486 22.108 5.6956 27.047 15.602 2.067 4.019 3.147 8.539 3.141 13.064z"/>
   <path id="Shape" sketch:type="MSShapeGroup" fill="#fff" d="m19.881 39.549c0.321-7.058 0.649-14.109 0.976-21.167-2.165-1.97-4.33-3.939-6.489-5.909-1.022 0.103-1.608 1.395-2.441 2.004-0.941 0.649-1.498 1.585-0.511 2.492 0.971 1.602 1.947 3.205 2.917 4.807-1.045 1.476-0.941 3.911-3.227 3.727-1.625 0.396-3.3363 0.58-4.9126 1.114-0.1413 1.539-0.1459 3.181 0 4.72 2.0931 0.707 4.3216 1.086 6.4686 1.666 0.178 1.958 2.441 3.755 0.552 5.38-0.873 1.436-1.964 2.78-2.699 4.279 0.987 1.188 2.142 2.348 3.336 3.342 1.212-0.839 2.102-2.246 3.187-3.308 0.948-1.051 1.895-2.096 2.849-3.147h-0.006z"/>
   <path id="Shape" sketch:type="MSShapeGroup" fill="#fff" d="m24.808 16.114c6.047 3.704 12.088 7.413 18.135 11.117 2.837-0.62 5.674-1.246 8.51-1.866 0.443-0.925-0.35-2.096-0.442-3.124-0.063-1.137-0.574-2.102-1.86-1.729h-5.628c-0.718-1.665-2.848-2.842-1.51-4.691 0.505-1.602 1.246-3.159 1.608-4.778-1.247-0.925-2.642-1.7802-4.037-2.4579-1.689 1.4189-3.17 3.1239-4.778 4.6569-1.769-0.861-4.479 0.138-4.887-2.32-0.775-1.4927-1.355-3.1236-2.251-4.5305-1.528 0.2239-3.124 0.6087-4.589 1.114 0.069 1.7573 0.718 3.5485 1.017 5.3175 0.235 1.097 0.476 2.2 0.712 3.296v-0.005z"/>
   <path id="Shape" sketch:type="MSShapeGroup" fill="#fff" d="m42.587 32.227c-6.099 3.348-12.197 6.69-18.296 10.033-0.741 2.79-1.476 5.581-2.217 8.378 0.598 0.833 2.01 0.695 2.952 1.114 1.034 0.488 2.125 0.505 2.418-0.804 0.901-1.642 1.803-3.285 2.705-4.927 1.803 0.167 3.864-1.137 4.846 0.936 1.155 1.206 2.165 2.607 3.417 3.698 1.401-0.643 2.825-1.458 4.089-2.348-0.431-2.165-1.212-4.29-1.78-6.438 1.602-1.131 2.032-3.985 4.381-3.164 1.683 0.057 3.394 0.31 5.059 0.207 0.534-1.453 0.965-3.032 1.229-4.56-1.332-0.643-2.992-0.723-4.45-1.148-1.453-0.322-2.906-0.649-4.353-0.977z"/>
   <path id="Shape" sketch:type="MSShapeGroup" fill="#0079C1" d="m43.144 29.293c0.166 7.017-5.789 13.443-12.794 13.817-6.989 0.706-13.852-4.744-14.765-11.704-1.206-6.805 3.515-13.949 10.234-15.534 6.661-1.872 14.241 2.119 16.481 8.66 0.557 1.522 0.844 3.141 0.844 4.761z"/>
  </g>
 </g>
</svg>