<?xml version="1.0" encoding="UTF-8" standalone="no"?>
<svg xmlns:sketch="http://www.bohemiancoding.com/sketch/ns" xmlns="http://www.w3.org/2000/svg" height="58px" width="58px" version="1.1" xmlns:xlink="http://www.w3.org/1999/xlink" viewBox="0 0 58 58"><!-- Generator: Sketch 3.4.2 (15855) - http://www.bohemiancoding.com/sketch -->
 <title>Lubuntu</title>
 <desc>Created with Sketch.</desc>
 <g id="Page-1" fill-rule="evenodd" sketch:type="MSPage" fill="none">
  <g id="Lubuntu" sketch:type="MSLayerGroup">
   <g id="#0068c8ff" sketch:type="MSShapeGroup" fill="#0068C8" transform="translate(.12429 .10617)">
    <path id="path2988" d="m17.19 2.5456c7.357-3.3606 16.174-3.3606 23.529 0.0042 5.999 2.6825 11.034 7.4762 13.965 13.362 4.105 7.937 4.123 17.851 0.036 25.798-0.506 1.132-1.214 2.155-1.85 3.216-0.842 1.145-1.658 2.316-2.658 3.335-0.827 0.981-1.804 1.817-2.764 2.666-0.51-3.507-1.104-7.002-1.792-10.479-0.75-3.339-1.462-6.692-2.476-9.964-1.323-4.334-2.917-8.641-5.362-12.479-1.191-1.782-2.578-3.478-4.346-4.716 0.762-0.942 0.78-2.233 0.891-3.3828-0.012-0.4033 0.337-0.6657 0.552-0.9657 0.604-0.783 1.263-1.5241 1.821-2.3419-1.123 0.1451-2.19 0.5387-3.253 0.9099-1.17 0.4773-2.362 1.0147-3.266 1.919-0.331 0.3294-0.849 0.275-1.26 0.4355-2.085 0.689-4.007 1.779-5.907 2.864-1.907 1.038-3.729 2.22-5.582 3.347-4.327 2.752-8.5973 5.592-12.795 8.535-1.5105 1.048-3.022 2.097-4.532 3.145 0.17581-3.75 0.9964-7.499 2.6224-10.895 2.8596-6.312 8.1016-11.489 14.427-14.313v-0.0004z"/>
    <path id="path2990" d="m26.583 24.792c0.481-0.419 0.999-0.834 1.619-1.021 0.529-0.079 1.062 0.06 1.581 0.147 1.609 0.404 2.896 1.547 4.032 2.701 1.796 1.951 3.207 4.219 4.481 6.534 1.745 3.132 3.12 6.447 4.493 9.753 1.082 2.8 2.134 5.612 3.063 8.467 0.102 0.146 0.097 0.603 0.356 0.49l0.098-0.026c-2.034 1.556-4.301 2.793-6.66 3.782-6.727 2.71-14.483 2.733-21.225 0.064-3.299-1.338-6.391-3.227-8.9879-5.67-0.5443-0.505-1.1388-0.974-1.5715-1.586 0.2038 0.204 0.4076 0.408 0.6085 0.614 4.4029-6.185 8.7409-12.418 13.257-18.523 1.515-1.991 3.023-4.009 4.856-5.726z"/>
    <path id="path2992" d="m9.6341 26.848c0.8209-0.2 1.6639-0.366 2.5119-0.332 0.261 0.012 0.63 0.09 0.628 0.423 0.004 0.438-0.169 0.859-0.34 1.256-0.793 1.688-1.914 3.19-2.9325 4.745-2.0655 3.01-4.1227 6.028-6.1952 9.034-2.1535-4.148-3.2575-8.84-3.1612-13.511 0.00842 0.409 0.01261 0.819 0.00982 1.229 0.10327 0.084 0.20795 0.168 0.31401 0.25 2.9909-1.207 6.0445-2.271 9.1652-3.094z"/>
    <path id="path2994" d="m15.595 30.1c0.553-0.443 1.076-1.132 1.859-1.072-0.394 1.186-1.111 2.229-1.718 3.312-2.906 5-6 9.888-8.9853 14.841 0.2066 0.227 0.4089 0.458 0.6071 0.694-0.7187-0.638-1.1988-1.485-1.7962-2.229-0.554-0.669-0.9434-1.449-1.4305-2.165 1.7892-2.215 3.5477-4.455 5.3872-6.628 1.9427-2.322 3.8537-4.689 6.0767-6.753z"/>
   </g>
   <g id="#ffffffff" sketch:type="MSShapeGroup" fill="#fff" transform="translate(1.8632 9.5022)">
    <path id="path2997" d="m31.493 0.89636c1.004-0.35063 2.011-0.72236 3.072-0.85945-0.527 0.77245-1.149 1.4724-1.72 2.2119-0.203 0.2834-0.532 0.5312-0.521 0.9122-0.105 1.0862-0.122 2.3055-0.842 3.1953 1.67 1.1692 2.981 2.7708 4.105 4.4537 2.309 3.625 3.815 7.693 5.064 11.786 0.959 3.091 1.631 6.258 2.339 9.412 0.65 3.284 1.211 6.584 1.692 9.897l0.004 0.026c-0.369 0.268-0.698 0.592-1.082 0.833l-0.092 0.026c-0.245 0.106-0.24-0.326-0.336-0.463-0.878-2.697-1.872-5.353-2.894-7.998-1.297-3.122-2.595-6.253-4.243-9.211-1.203-2.187-2.536-4.329-4.233-6.172-1.073-1.09-2.288-2.17-3.808-2.55-0.49-0.084-0.994-0.214-1.493-0.14-0.586 0.176-1.075 0.569-1.529 0.965-1.731 1.621-3.156 3.527-4.586 5.408-4.266 5.766-8.363 11.653-12.522 17.495-0.1896-0.195-0.382-0.387-0.5745-0.58-0.1661-0.167-0.3216-0.344-0.4759-0.522-0.1871-0.223-0.3783-0.44-0.5734-0.655 2.8196-4.678 5.7418-9.295 8.4868-14.018 0.573-1.022 1.251-2.007 1.622-3.128-0.739-0.056-1.233 0.595-1.755 1.013-2.1 1.949-3.905 4.185-5.7398 6.378-1.7374 2.053-3.3983 4.169-5.0882 6.26-0.2834-0.461-0.5523-0.931-0.779-1.423 1.9575-2.839 3.9005-5.689 5.8514-8.533 0.9622-1.468 2.0206-2.887 2.7696-4.482 0.162-0.374 0.325-0.772 0.322-1.186 0.001-0.314-0.347-0.387-0.594-0.399-0.801-0.032-1.5973 0.125-2.3724 0.313-2.9475 0.778-5.8316 1.783-8.6565 2.923-0.10019-0.078-0.19905-0.157-0.2966-0.236 0.002636-0.388-0.001318-0.775-0.0092273-1.161-0.0039545-0.225-0.0039545-0.447-0.0039545-0.67 1.4263-0.99 2.8539-1.98 4.2802-2.97 3.965-2.78 7.9985-5.462 12.086-8.062 1.749-1.0637 3.469-2.1802 5.271-3.161 1.794-1.0242 3.609-2.0537 5.579-2.7049 0.389-0.1516 0.878-0.1001 1.19-0.4112 0.854-0.8542 1.98-1.3617 3.085-1.8125v-0.00004z"/>
   </g>
  </g>
 </g>
</svg>
