<?xml version="1.0" encoding="UTF-8" standalone="no"?>
<!-- Created with Inkscape (http://www.inkscape.org/) -->
<svg id="svg5528" xmlns:rdf="http://www.w3.org/1999/02/22-rdf-syntax-ns#" xmlns="http://www.w3.org/2000/svg" height="512" width="512" version="1.1" xmlns:cc="http://creativecommons.org/ns#" xmlns:dc="http://purl.org/dc/elements/1.1/" viewBox="0 0 135.46666 135.46666">
 <metadata id="metadata5525">
  <rdf:RDF>
   <cc:Work rdf:about="">
    <dc:format>image/svg+xml</dc:format>
    <dc:type rdf:resource="http://purl.org/dc/dcmitype/StillImage"/>
    <dc:title/>
   </cc:Work>
  </rdf:RDF>
 </metadata>
 <g id="layer1" transform="translate(0 -161.53)">
  <g id="g4485" stroke-width=".41676" transform="matrix(3.9064 0 0 3.9064 -1635.2 -1397.3)">
   <path id="path4487" style="color-rendering:auto;color:#000000;isolation:auto;mix-blend-mode:normal;shape-rendering:auto;solid-color:#000000;image-rendering:auto" d="m453.21 416.38a17.271 17.271 0 0 1 -17.271 17.271 17.271 17.271 0 0 1 -17.271 -17.271 17.271 17.271 0 0 1 17.271 -17.271 17.271 17.271 0 0 1 17.271 17.271z" fill-rule="evenodd" fill="#0068c8"/>
   <path id="path4489" d="m438.18 405.85c-0.73891 0.004-1.477 0.18989-2.1271 0.54157-0.80012 0.43284-1.4635 1.1145-1.8744 1.9261-0.41091 0.8116-0.56753 1.7496-0.44279 2.6507 0.12475 0.9011 0.53029 1.7613 1.1462 2.4308-0.32003-0.5953-0.47167-1.28-0.43326-1.9547 0.0384-0.67478 0.2668-1.3377 0.65232-1.8929 0.38552-0.55514 0.92695-1.0007 1.5458-1.2724 0.61886-0.27169 1.3133-0.3686 1.9829-0.27667 0.9382 0.12881 1.8191 0.63527 2.4024 1.3813h9.3467l-8.2008-1.1302c-0.68223-1.2955-2.0321-2.2156-3.4874-2.3768-0.16954-0.0188-0.34003-0.0276-0.51054-0.0268zm-14.697 1.5973c-0.60073 1.1868-0.83832 2.5543-0.67321 3.8742 0.16512 1.3199 0.73229 2.5868 1.6069 3.589 0.48942 0.56085 1.0757 1.0342 1.7215 1.404l-1.8288-0.51419c-0.0882 1.0309 0.1146 2.0852 0.57889 3.0099 0.46429 0.92468 1.1888 1.7168 2.0683 2.2618 1.3056 0.80903 2.9497 1.0509 4.433 0.65192-1.4858 0.0106-2.9582-0.72733-3.8391-1.9239-0.49703-0.67518-0.80951-1.4848-0.89511-2.3188l8.683 1.42-7.0199-1.9738c-0.56161-0.27269-1.0748-0.64561-1.503-1.1-0.59214-0.62828-1.0223-1.408-1.2381-2.244-0.24706-0.95717-0.21044-1.9856 0.10386-2.9229l10.354 5.8046zm16.885 4.5328c-0.2049 0.42497-0.34744 0.87988-0.4215 1.3458-0.22967 1.4451 0.20009 2.905 0.62839 4.3042 0.42829 1.3992 0.86487 2.8551 0.64887 4.3024-0.16138 1.0813-0.68903 2.0935-1.4274 2.8997-0.73833 0.80628-1.6805 1.4122-2.6928 1.8249-1.6682 0.68013-3.5444 0.83991-5.3036 0.45172v4.8109l1.4466-3.434c1.8749 0.42759 3.882 0.25463 5.6561-0.48742 1.27-0.53121 2.429-1.3582 3.2648-2.4521 0.83587-1.0938 1.3348-2.4608 1.2996-3.837-0.0424-1.654-0.82417-3.1869-1.5807-4.6583-0.75653-1.4715-1.523-3.0162-1.5314-4.6707-0.00072-0.13345 0.004-0.26686 0.013-0.39999z" fill="#fff"/>
  </g>
 </g>
</svg>