<?xml version="1.0" encoding="UTF-8" standalone="no"?>
<svg xmlns="http://www.w3.org/2000/svg" height="59px" width="59px" version="1.0" preserveAspectRatio="xMidYMid meet" viewBox="0 0 100 100">
 <g transform="translate(0 100) scale(.1 -.1)" fill="#dd4814">
  <path d="m420 969c-81-13-192-72-255-134-109-109-162-277-132-420 40-190 165-327 345-376 162-45 327-2 453 118 280 267 143 728-241 809-72 15-91 16-170 3zm190-80c0-6 10-19 21-28l22-17-27-21c-23-18-28-33-39-116l-13-95 51-11c28-6 62-19 75-28 22-15 22-19 18-132-5-115-27-201-50-201-7 0-8-17-5-45 7-51-4-58-29-20-16 24-21 25-114 25-98 0-99 0-120-30-29-41-42-38-34 6 5 29 2 40-19 62-36 39-54 79-67 151-12 68-6 149 13 175 7 8 35 21 64 28l51 13-26 63c-18 40-37 69-55 80-15 9-27 22-27 28 0 30 69 54 89 30 7-8 6-20-3-36-11-22-8-34 17-92l30-68h115l12 80c12 75 10 112-6 168-5 18-2 22 15 22 11 0 21 5 21 10 0 6 5 10 10 10 6 0 10-5 10-11z"/>
  <path d="m380 537c-35-12-35-13-38-77-4-78 18-145 51-154 29-8 185-6 217 3 41 11 73 128 54 198-4 12-19 26-36 32-41 15-204 13-248-2z"/>
 </g>
</svg>
