<?xml version="1.0" encoding="UTF-8" standalone="no"?>
<svg xmlns:sketch="http://www.bohemiancoding.com/sketch/ns" xmlns="http://www.w3.org/2000/svg" height="59px" width="58px" version="1.1" xmlns:xlink="http://www.w3.org/1999/xlink" viewBox="0 0 58 59"><!-- Generator: Sketch 3.4.2 (15855) - http://www.bohemiancoding.com/sketch -->
 <title>ubuntustudio</title>
 <desc>Created with Sketch.</desc>
 <g id="Page-1" fill-rule="evenodd" sketch:type="MSPage" fill="none">
  <g id="ubuntustudio" fill="#009BF9" sketch:type="MSLayerGroup">
   <path id="path10060-3" sketch:type="MSShapeGroup" d="m28.959 0c-16.015 0-28.959 12.944-28.959 28.959 0 16.016 12.944 29.081 28.959 29.081 16.016 0 28.96-13.065 28.96-29.081 0-16.015-12.944-28.959-28.96-28.959zm6.059 4.4832c0.314-0.0394 0.645-0.0907 0.969 0 4.322 1.2116 8.011 3.3332 11.148 6.5428 0.272 0.272 0.486 0.725 0.605 1.091 0.227 0.678 0.095 1.351-0.242 1.939-0.202 0.352-0.48 0.628-0.848 0.848-0.982 0.585-2.248 0.471-3.029-0.364-2.62-2.68-5.358-4.319-8.967-5.331-1.296-0.3625-1.938-1.7331-1.575-3.0292 0.272-0.9722 0.995-1.5783 1.939-1.6964v-0.0002zm-6.18 7.5128c4.408 0 8.769 1.62 12.117 4.968 6.696 6.695 6.696 17.659 0 24.355-6.696 6.695-17.538 6.695-24.234 0-0.601-0.585-0.94-1.492-0.727-2.303 0.214-0.81 0.886-1.362 1.697-1.575 0.81-0.213 1.717 0.004 2.302 0.606 4.917 4.917 12.773 4.917 17.69 0 4.918-4.917 4.918-12.895 0-17.812-4.917-4.917-12.773-4.917-17.69 0-0.864 0.952-2.32 1.107-3.272 0.242-0.951-0.864-1.106-2.441-0.242-3.392 0.05-0.056 0.187-0.071 0.242-0.121 3.348-3.348 7.71-4.968 12.117-4.968zm0 7.997c2.342 0 4.647 0.89 6.422 2.666 3.55 3.55 3.55 9.414 0 12.965-3.55 3.55-9.293 3.55-12.844 0-3.55-3.551-3.55-9.415 0-12.965 1.775-1.776 4.08-2.666 6.422-2.666zm-22.053 0.848c0.4064-0.004 0.835 0.039 1.2117 0.242 1.0047 0.547 1.4101 1.689 1.0906 2.787-0.9701 3.621-0.9701 6.8 0 10.421 0.3489 1.3-0.3965 2.559-1.6964 2.908s-2.6802-0.397-3.0292-1.697c-1.1616-4.335-1.1616-8.508 0-12.843 0.095-0.373 0.3516-0.681 0.6058-0.97 0.4676-0.54 1.1404-0.839 1.8175-0.848zm7.3916 2.06c0.493-0.051 1.008 0.091 1.454 0.363 0.891 0.545 1.378 1.661 1.09 2.666-0.617 2.302-0.617 4.119 0 6.422 0.333 1.24-0.456 2.575-1.696 2.908-1.241 0.333-2.454-0.456-2.787-1.696-0.8-2.986-0.8-5.86 0-8.846 0.109-0.434 0.278-0.906 0.606-1.211 0.381-0.358 0.839-0.556 1.333-0.606zm14.661 1.575c-1.186 0-2.358 0.54-3.271 1.454-1.828 1.828-1.828 4.715 0 6.543 1.827 1.828 4.715 1.828 6.543 0 1.827-1.828 1.827-4.715 0-6.543-0.914-0.914-2.086-1.454-3.272-1.454zm15.873 18.66c0.533-0.073 1.085 0.069 1.575 0.363 0.368 0.221 0.648 0.495 0.849 0.849 0.335 0.588 0.471 1.382 0.242 2.059-0.121 0.366-0.332 0.699-0.606 0.97-3.149 3.197-6.821 5.227-11.147 6.422-1.298 0.357-2.672-0.399-3.03-1.697-0.357-1.297 0.399-2.55 1.697-2.908 3.613-0.997 6.336-2.661 8.966-5.331 0.393-0.416 0.921-0.655 1.454-0.727z"/>
  </g>
 </g>
</svg>
