<?xml version="1.0" encoding="UTF-8" standalone="no"?>
<svg xmlns:sketch="http://www.bohemiancoding.com/sketch/ns" xmlns="http://www.w3.org/2000/svg" height="57px" width="58px" version="1.1" xmlns:xlink="http://www.w3.org/1999/xlink" viewBox="0 0 58 57"><!-- Generator: Sketch 3.4.2 (15855) - http://www.bohemiancoding.com/sketch -->
 <title>Xubuntu_logo</title>
 <desc>Created with Sketch.</desc>
 <g id="Page-1" fill-rule="evenodd" sketch:type="MSPage" fill="none">
  <g id="Xubuntu_logo" transform="translate(0 -1)" sketch:type="MSLayerGroup">
   <g id="layer1" sketch:type="MSShapeGroup" transform="translate(.60458 .85098)">
    <g id="g3637" transform="translate(.27419 .35297)">
     <path id="path3354" fill="#04a" d="m56.242 28.675c0 15.531-12.59 28.121-28.121 28.121s-28.121-12.59-28.121-28.121c0.000013815-15.531 12.59-28.121 28.121-28.121 15.531-0.00038 28.121 12.59 28.121 28.121z"/>
     <g id="g3372" fill="#fff" transform="translate(10.203 9.191)">
      <g id="g3368" transform="translate(24.531 1.3433)">
       <path id="path3366" d="m2.5924 0.57121c-0.0983 0.05681-0.114 0.08633-0.0879 0.04387-0.9548 1.6084-0.9794 3.7301-1.406 5.6242 0.0004 0.0146 0.0004 0.0293 0 0.0439-0.007 0.0277 0.007 0.0603 0 0.0879-0.20707 2.0334-0.87738 4.1069-0.39547 6.0639 0.01895 0.042 0.03365 0.086 0.04387 0.131 0.00422 0.015-0.00422 0.03 0 0.044 0.00703 0.012-0.00703 0.034 0 0.044 0.00844 0.013 0.03557-0.011 0.04387 0 0.10278 0.142 0.22833 0.248 0.30753 0.264 0.0567 0.011 0.155 0.005 0.3516-0.132 0.2127-0.148 0.333-0.445 0.3954-0.835 0.0242-0.047 0.0537-0.091 0.0879-0.132-0.0005-0.014-0.0005-0.029 0-0.043 0.0102-0.046 0.0249-0.09 0.0439-0.132 0.0139-0.015 0.0286-0.03 0.0438-0.044 0.8413-3.3561 1.4107-6.8782 1.1864-10.326-0.0287-0.1711-0.0602-0.29053-0.2197-0.48309-0.1059-0.12753-0.1927-0.20077-0.2197-0.2197-0.027-0.01898 0.0098-0.00562-0.0879 0-0.0146 0.00046-0.0292 0.00046-0.0438 0-0.0362 0.00422-0.0223-0.00086-0.0439 0h0.0001z"/>
       <path id="path3364" d="m10.338 2.2158c-1.4569 0.7082-2.2028 2.3979-3.2073 3.7788-0.0099 0.0453-0.0246 0.0895-0.0438 0.1317-0.0124 0.0304-0.0271 0.0598-0.0439 0.0879-1.2735 2.2569-2.8982 4.5098-3.0758 7.1178-0.001 0.015 0.001 0.03 0 0.044 0.0194 0.394 0.2449 0.608 0.4834 0.659 0.2342 0.051 0.6671-0.083 0.8348-0.351 0.0139-0.015 0.0286-0.03 0.0439-0.044-0.0005-0.015-0.0005-0.029 0-0.044-0.0005-0.015-0.0005-0.029 0-0.044 2.3144-3.18 4.0553-6.9245 5.4927-10.589-0.001-0.0148-0.001-0.0294 0-0.044 0.099-0.2406 0.132-0.3022 0.044-0.4834-0.026-0.0535-0.299-0.2372-0.44-0.2197-0.023 0.0099-0.065-0.0112-0.088 0v-0.0001z"/>
      </g>
      <path id="path3302" d="m12.19 4.6082c-0.235 0.0438-0.585 0.2544-0.835 0.3515-0.883 0.3352-1.3704 1.0925-1.5813 1.9773-0.2148 0.9053-0.1432 1.9134 0 2.944 0.1431 1.028 0.3483 2.09 0.5713 2.9 0.192 0.701 0.329 1.042 0.395 1.274v0.176c0 0.077-0.036 0.07-0.088 0.132-0.028 0.015 0.029 0.088 0 0.088-0.063 0.048-0.14 0.087-0.219 0.087-0.156 0.01-0.278-0.047-0.4396-0.087-0.11-0.026-0.2531-0.114-0.2197-0.088-0.0511-0.031-0.1425-0.034-0.1758-0.088 0 0.02 0.0308 0.02 0-0.044-0.0357-0.067-0.0755-0.234-0.1317-0.352-0.1253-0.266-0.2237-0.575-0.3955-0.966-0.3428-0.78-0.7839-1.738-1.2742-2.637-0.4921-0.9015-1.0718-1.72-1.7137-2.2844-0.3208-0.282-0.7168-0.5646-1.0985-0.6591-0.3683-0.0921-0.8054-0.0141-1.1863 0.1757-0.9842 0.5461-1.5413 1.4401-1.7576 2.3728-0.2173 0.947-0.1146 2.037 0.0439 2.988 0.161 0.948 0.4104 1.73 0.5712 2.373 0.0689 0.27 0.1528 0.523 0.1757 0.659 0 0.134-0.0547 0.484-0.0878 0.615-0.1662 0.575-0.5703 1.538-0.5712 1.538 0 0-7.6672 20.364 8.7878 18.938 0.136-0.01 0.443-0.088 0.571-0.088 3.232-0.651 6.29-1.628 9.008-2.725 0.534-0.255 1.234-0.51 2.021-0.878 1.573-0.737 3.55-1.682 5.449-2.725s3.662-2.155 5.009-3.339c1.349-1.186 2.334-2.485 2.153-3.779-0.287-2.086-1.672-3.636-3.516-4.833-1.85-1.202-4.158-2.031-6.459-2.636-2.3-0.605-4.533-1.097-6.239-1.363-0.853-0.132-1.652-0.171-2.153-0.263-0.148-0.026-0.227-0.063-0.308-0.088-0.043-0.006-0.047-0.019-0.087-0.044-0.052-0.031-0.145-0.034-0.176-0.088-0.028-0.051 0-0.117 0-0.176v-0.087-1.275c-0.028-1.051-0.09-2.44-0.308-3.7346-0.22-1.3-0.559-2.5433-1.274-3.3833-0.425-0.4998-1.027-0.8278-1.758-0.8788-0.219-0.0256-0.465-0.0435-0.703 0v-0.0001z"/>
     </g>
    </g>
   </g>
  </g>
 </g>
</svg>